<?xml version="1.0" encoding="UTF-8" standalone="no"?>
<svg
   id="Layer_1"
   viewBox="0 0 424.12402 467.97656"
   width="1009.8191"
   height="1114.353"
   version="1.1"
   sodipodi:docname="uwat.svg"
   inkscape:version="1.2 (dc2aeda, 2022-05-15)"
   xmlns:inkscape="http://www.inkscape.org/namespaces/inkscape"
   xmlns:sodipodi="http://sodipodi.sourceforge.net/DTD/sodipodi-0.dtd"
   xmlns="http://www.w3.org/2000/svg"
   xmlns:svg="http://www.w3.org/2000/svg">
  <defs
     id="defs196" />
  <sodipodi:namedview
     id="namedview194"
     pagecolor="#ffffff"
     bordercolor="#000000"
     borderopacity="0.25"
     inkscape:showpageshadow="2"
     inkscape:pageopacity="0.0"
     inkscape:pagecheckerboard="0"
     inkscape:deskcolor="#d1d1d1"
     showgrid="false"
     inkscape:zoom="0.71700795"
     inkscape:cx="1246.8481"
     inkscape:cy="1161.075"
     inkscape:window-width="1293"
     inkscape:window-height="955"
     inkscape:window-x="2215"
     inkscape:window-y="253"
     inkscape:window-maximized="0"
     inkscape:current-layer="Layer_1" />
  <style
     id="style159">.st0{fill:#fff}.st1{fill:#262222}.st2{fill:#fbd150}.st3{fill:#cf1c43}</style>
  <path
     class="st0"
     d="M -8.4375e-6,-0.03999933 H 424.12397 V 467.98829 H -8.4375e-6 Z"
     id="Background"
     style="stroke-width:0.510998"
     inkscape:export-filename="uwat.svg"
     inkscape:export-xdpi="96"
     inkscape:export-ydpi="96" />
  <g
     id="Layer_1_1_"
     transform="translate(-310.3584,-249.92422)">
    <path
       d="m 543.9,32 h 3.9 c 6.7,0.4 13.1,2.9 18.5,7 -2.1,3.2 -4.3,6.3 -6.5,9.5 -4.7,-2.9 -9.8,-5.8 -15.5,-5.5 -2.7,0.2 -6.1,1.8 -5.9,4.9 -0.1,2.4 2.2,3.9 4.2,4.7 6.6,2.5 14.1,3.1 19.9,7.4 6.5,4.7 6.7,14.5 2.8,20.9 -3.1,5 -9.1,7.3 -14.7,7.8 -9.7,1 -19.4,-2.5 -26.8,-8.7 2.4,-3 4.9,-5.9 7.4,-8.9 5.9,4.6 13.8,8.6 21.4,5.8 3.3,-1.1 4.1,-6.2 0.9,-7.9 -5.3,-3 -11.7,-3.4 -17.2,-5.8 -4.1,-1.5 -8,-4.5 -9.3,-8.8 -1.6,-5.6 -0.8,-12.3 3.3,-16.6 3.5,-3.7 8.6,-5.4 13.6,-5.8 z M 868,32 c 5.8,0.6 11.4,2.8 15.8,6.5 11.5,9.2 13.3,27.7 4.3,39.2 C 878,91.5 855.5,92.9 843.4,80.9 833.3,71.4 832.2,54.2 840.6,43.2 845.5,36.8 853.1,32.9 861,32 Z m -3.2,11.3 c -3.1,0.2 -1.8,0 -3.9,0.4 -10.4,1.9 -15.8,14.8 -11.3,24.1 3.3,8.6 14.6,12.5 22.6,8 8.4,-4.3 11.1,-16 6.5,-24 -3,-5.5 -7.9,-7.8 -13.9,-8.5 z M 87,32.9 c 4.2,-0.2 8.3,-0.3 12.5,-0.2 v 32.4 c 0,4.5 2,9.6 6.4,11.4 4.4,1.8 10,1.4 13.6,-1.9 2.8,-2.8 3.5,-6.9 3.5,-10.6 V 32.9 c 4.1,-0.2 8.2,-0.2 12.2,-0.1 0,11.4 0.1,22.8 -0.1,34.3 -0.3,8.2 -4.6,16.7 -12.5,19.8 C 114.3,90.1 104.2,90 96.4,85.2 89.8,81.1 87.1,72.9 87,65.5 86.9,54.7 87.1,43.8 87,32.9 Z m 80.3,-0.2 c 3.8,-0.1 7.6,-0.1 11.3,0 8.6,11.2 17.1,22.5 25.7,33.7 V 32.8 c 4.1,-0.1 8.2,-0.1 12.2,0 v 55.3 h -10.8 c -8.7,-11.5 -17.4,-23 -26.2,-34.4 -0.1,11.5 0,23 0,34.5 h -12.2 z m 83.4,0.1 c 4.1,-0.1 8.2,-0.1 12.2,0 v 55.1 h -12.2 z m 41.7,0 c 4.6,-0.2 9.2,-0.2 13.8,0 4.7,12.8 9.5,25.6 14.2,38.4 4.8,-12.8 9.5,-25.6 14.3,-38.4 4.5,-0.2 8.9,-0.2 13.4,0 -7.4,18.6 -14.9,37.1 -22.3,55.7 h -11 c -7.5,-18.6 -15,-37.1 -22.4,-55.7 z m 84.3,0.1 c 14,-0.4 28,-0.2 42,-0.2 v 11.1 h -29.5 v 11 H 415 v 11 H 389.2 V 77 H 419 v 11 h -42.3 z m 86.3,-0.3 12.6,0.1 c 6.1,0.1 12.7,1.7 16.9,6.4 6.4,7.7 5.4,20.9 -2.9,26.8 -1.5,1 -3.1,1.8 -4.7,2.6 4.5,6.4 8.9,13 13.4,19.4 h -14.6 c -3.9,-5.8 -7.8,-11.7 -11.8,-17.5 h -9.3 v 17.5 h -12.2 c -0.1,-18.3 -0.1,-36.7 -0.1,-55.1 z m 10.3,11.3 H 469 c -1.4,0 -2.9,0.1 -4.3,0.1 -0.7,0 -1.4,0 -2.1,-0.1 v 15.5 c 5.6,-0.4 11.4,0.7 16.8,-0.8 6,-2 6.2,-11.6 0.3,-13.8 -3.6,-0.8 -1.5,-0.4 -6.4,-0.9 z m 126,-11.1 c 4.2,-0.1 8.3,-0.1 12.5,0 V 88 H 599.3 Z M 642,32.7 c 15.2,-0.1 30.5,-0.2 45.8,0 V 44.2 H 671 V 88 H 658.8 V 44.2 H 642 Z m 69.8,0.2 c 4.8,-0.3 9.7,-0.3 14.5,-0.1 4.3,7.3 8.6,14.6 13,21.9 4.4,-7.3 8.9,-14.6 13.2,-21.9 4.7,-0.2 9.4,-0.1 14.2,0.1 -7.1,11 -14.1,22.1 -21.2,33.1 V 88 H 733 V 66.3 C 725.9,55.2 718.8,44 711.8,32.9 Z m 207.9,-0.1 c 14,-0.3 28,-0.2 42,-0.1 v 11.2 h -29.8 v 11.5 h 26.2 v 11.2 h -26.2 v 21.2 h -12.2 z m -819.6,90.7 h 22.8 c 8.9,27 17.8,53.9 26.7,80.9 L 174.2,124 H 202 c -13.6,40.2 -27.3,80.3 -40.8,120.5 h -23.1 c -9,-25.9 -17.9,-51.9 -26.9,-77.8 -8.9,26 -17.9,51.9 -26.9,77.9 H 61.2 C 47.6,204.6 34,164.5 20.5,124.5 V 124 h 28.4 a 6.5353114e17,6.5353114e17 0 0 0 51.2,-0.5 z m 729.2,-0.8 c 10.6,0.1 20.7,2.8 30.1,7.5 13.9,7.2 24.7,20.2 29.3,35.3 4.9,15.8 3.5,33.6 -4.3,48.3 -6.2,11.8 -16.4,21.3 -28.5,26.8 -13.8,6.3 -29.8,7.5 -44.5,4.1 -15.2,-3.5 -28.9,-12.9 -37.4,-26.1 -8.9,-13.6 -11.7,-30.7 -8.5,-46.6 2.7,-13.6 10.2,-26.2 21,-34.9 8.2,-6.8 18.2,-11.3 28.6,-13.3 4.7,-0.9 9.4,-1 14.2,-1.1 z m -2,24.5 c -4.9,0.3 -2.8,0.1 -6.3,0.6 -5.2,0.9 -10.2,3.1 -14.5,6.2 -12.1,9 -17,25.6 -13.4,39.8 2.6,11.7 11.2,22 22.6,26 13.4,5 29.7,1.3 39,-9.7 12.9,-14.8 11.9,-39.5 -2.3,-53.1 -7.2,-6.9 -15.4,-9.3 -25.1,-9.8 z M 964,122.7 c 16.7,-0.5 32.6,4.8 45.4,15.5 11.3,9.8 18.4,23.9 20.2,38.6 v 15.5 c -2.1,18.1 -12.7,34.9 -28.3,44.5 -14,8.9 -31.5,11.5 -47.8,8.7 -16.2,-2.8 -31.4,-12.1 -40.5,-25.9 -7.9,-11.5 -11.3,-25.7 -10.2,-39.5 1,-16.3 8.9,-32.1 21.4,-42.5 11.8,-9.9 24.7,-13.7 39.8,-14.9 z m 2.4,24.5 c -5.7,0.3 -3.3,0 -7.3,0.6 -5.7,1.1 -11.1,3.6 -15.5,7.4 -12.4,10.2 -16.2,28.5 -10.7,43.3 3.7,10.3 12.3,18.9 22.8,22 14.3,4.6 31.4,-0.7 39.8,-13.4 7.4,-10.9 8.7,-25.5 3.7,-37.6 -3.7,-9.3 -11.4,-16.9 -20.8,-20.2 -3.9,-1.6 -7.8,-1.8 -12,-2.1 z M 267.8,124 c 17.1,40.2 34.2,80.3 51.2,120.5 h -27.8 c -3.6,-8.9 -7.3,-17.8 -10.9,-26.8 h -50.4 c -3.6,8.9 -7.3,17.8 -10.8,26.7 -9,0.1 -18.1,0.1 -27.2,0.1 17.1,-40.2 34.2,-80.3 51.3,-120.5 z m -12.6,32 c -5.2,12.8 -10.4,25.5 -15.7,38.2 h 31.3 C 265.7,181.4 260.4,168.7 255.2,156 Z m 55.8,-6.8 v -24.5 h 99.2 v 24.5 h -36.3 v 95.2 h -26.8 v -95.2 z m 119,95.3 V 124.7 h 90.5 v 23.5 h -64 v 24 h 56.2 V 196 h -56.2 v 24.8 h 64.8 v 23.8 c -30.5,-0.1 -60.9,-0.1 -91.3,-0.1 z M 604,124.7 c 10.7,0.1 20.9,2.1 29.9,8 8.2,5.3 13.4,14.4 14.8,24 1.6,10.7 0.2,22.5 -6.3,31.5 -4.5,6.5 -11.3,10.9 -18.5,13.7 9.7,14.3 19.5,28.4 29.1,42.7 -10.4,0.1 -20.8,0 -31.1,0 -8.5,-12.8 -17.1,-25.5 -25.6,-38.3 h -20.5 v 38.2 H 549.3 V 124.8 h 50.2 z m -2.5,24.1 h -25.8 c 0,11.3 0,22.6 0.1,34 h 26.7 c 4.6,0.1 9.3,-0.9 13.2,-3.5 9,-6 9,-21.7 -0.4,-27.3 -4.1,-2.5 -9.1,-3.3 -13.8,-3.2 z M 678,244.5 V 124.7 h 26.5 v 95.5 h 56 v 24.2 c -27.5,0.1 -55,0.1 -82.5,0.1 z"
       id="path162" />
    <path
       class="st1"
       d="m 359.5,298.5 h 328.1 c -1.4,44.5 -1.1,89.2 -6.1,133.6 -4.8,44.3 -15.4,88.5 -35.5,128.5 -8.6,17.1 -18.3,33.7 -30.3,48.7 -24.4,30.5 -56.9,53.8 -92.2,70 -32.6,-14.9 -62.8,-35.8 -86.4,-62.9 -14.4,-16.4 -25.8,-35.2 -35.6,-54.6 -19.4,-38.1 -30.1,-80.1 -35.2,-122.3 -5.7,-46.8 -5.8,-94 -6.8,-141 z"
       id="path164" />
    <path
       class="st2"
       d="m 366,305 h 314.8 c -1,47.1 -1.2,94.4 -7.7,141.1 -3.1,22.1 -7.7,44 -14.4,65.2 -45,-35.6 -89.9,-71.4 -134.9,-107 -45.1,35.8 -90.3,71.6 -135.4,107.4 C 375,469.5 370.2,425.1 368.3,381 366.9,355.7 366.7,330.3 366,305 Z"
       id="path166" />
    <path
       class="st3"
       d="m 649.5,315 c 6.9,-2.7 15.8,2.4 16.2,10 0.6,7 -3.8,12.8 -6.2,19 -2.3,5.8 -5.2,11.9 -4.5,18.3 2.6,-3.1 4.5,-6.7 6.9,-10 -0.8,3.9 -1.7,7.7 -1.9,11.7 -0.2,5.4 0.7,10.7 1,16 0.6,4.8 -4.8,8.1 -4,12.9 1.2,7.8 5.1,15.1 4.6,23.1 -0.1,4.4 -2.5,8.7 -6.1,11.2 -3.1,2.1 -7,2 -10.5,2.6 0.2,2.6 -0.1,5.2 0.8,7.7 2.3,4.1 7.8,4.9 10.4,8.5 0.4,7.5 -4.7,13.9 -5.6,21.1 -0.4,3.5 -1.7,6.7 -3.2,9.8 -1.4,-1.7 -2,-5.6 -5,-4.7 -2.5,0.9 -3.9,3.5 -6.2,4.8 -2.4,0.5 -5,0.2 -7.4,0.2 0.5,-2.4 1,-4.9 1.7,-7.2 -2.3,-0.1 -4.5,-0.2 -6.8,-0.5 -0.2,-2 -0.3,-4.4 1.3,-5.9 1.9,-1.1 4.2,-1.1 6.3,-1.6 -2,-1.1 -4.1,-2.1 -6.2,-3 1.1,-1.7 1.9,-3.6 3.5,-4.8 1.9,-1 5,-0.9 5.9,1.4 1.4,3 2.1,6.5 4.7,8.8 3.7,-3.2 6.4,-8.1 5.7,-13.1 -1.4,-4.1 -5.5,-6.9 -9.6,-7.5 -6.2,-0.5 -13.1,2.4 -18.6,-1.4 -4.9,-4.1 -4.6,-11.8 -2.1,-17.1 2.2,-4.5 7.6,-5.5 12,-6.7 -4.9,-9.8 -13.9,-16.1 -22.1,-22.9 -4.9,-3.9 -4.2,-10.9 -2.6,-16.1 2.1,1.4 4.1,2.9 6,4.4 2.7,-3 5.3,-6.5 9.3,-7.6 4.2,-1.2 8.5,0 12.5,1.2 -1.9,13.4 2.2,27.6 11.1,37.8 1.9,2.1 2.9,4.7 3.9,7.3 0.4,2 2.8,2.1 4.5,2 4.6,-0.5 8.3,-5.1 8,-9.8 0,-4.6 -0.5,-9.4 -2.6,-13.4 -0.8,-1.6 -2.9,-3.1 -4.7,-1.9 -2.6,1.3 -3.3,4.4 -4.6,6.8 -1.8,-3.7 -4.5,-8.2 -1.9,-12.2 1.7,-3.5 5.9,-2.3 8.9,-1.8 -1.4,-9.6 -4.4,-19.3 -2.6,-29 1.9,-8.8 4.5,-17.4 5.3,-26.4 0.8,-4.1 -4.4,-6.9 -7.7,-4.9 -2.5,1.3 -2.1,4.5 -2.2,6.9 0.1,5 -0.4,10 -1.4,15 -1.2,-8.6 -4.8,-17 -4,-25.9 0.8,-5.6 4.5,-11 9.8,-13.1 z m -195,5.2 c 1.9,-0.6 3.5,-1.9 5.2,-3 0.3,1.5 0.7,3.1 0.8,4.7 -1.1,1.8 -2.6,3.3 -3.6,5.2 -0.2,3.9 1.9,8.6 -1.6,11.7 -6.6,7.4 -17.5,5.2 -26.2,6.7 -0.2,-0.7 -0.6,-2.1 -0.9,-2.8 3,-0.4 6.3,-0.2 8.8,-2.1 3.1,-3.6 3.6,-10.6 -1.2,-13.1 -3.8,-1.5 -7.6,0.8 -11.3,1.5 0.9,-1.9 1.4,-4.5 3.7,-5.2 4.4,-1.7 8.8,-3.2 13.1,-4.9 4.5,-1.9 8.8,1.5 13.2,1.3 z m 155.2,-1 c 4.5,-2.5 9.1,0.9 13.4,2.2 3.5,1.6 7.1,-0.2 10.4,-1.4 0,1.7 0.1,3.3 0.2,5 -1.4,1.3 -3,2.5 -4.2,4 -2.1,3.3 -1.8,8.2 -5.5,10.4 -3.1,1.6 -6.1,3.3 -9.3,4.6 -5.3,1.5 -11,0.7 -16.3,-0.5 0.3,-0.7 0.6,-1.4 0.9,-2.2 2.8,-0.3 6.2,0.1 8.2,-2.3 3,-2.9 2.5,-8 0.2,-11.1 -0.9,-1.3 -2.7,-1.1 -4.1,-0.9 -2.9,0.5 -5.7,1.2 -8.5,1.8 0.7,-2 0.8,-5.2 3.6,-5.6 3.7,-1 7.5,-2 11,-4 z m -229.6,2.3 c 2.3,-1 4.6,-3.1 7.3,-2.2 3.1,0.6 3.3,4.2 4.3,6.6 0.8,0.5 1.6,1 2.3,1.5 0.2,-3.1 1.4,-5.9 3.1,-8.4 1.9,1.7 5.1,3.1 4.9,6.1 -0.1,4.6 -0.6,9.5 1.6,13.8 4.8,9.9 15.4,15.5 25.7,17.9 -2,2.8 -3.7,5.7 -5.3,8.7 -2.9,-0.1 -5.8,-0.1 -8.7,-0.1 -0.3,-1.1 -0.7,-2.1 -1,-3.2 -2.7,-1.3 -5.5,-2.3 -8.1,-3.9 -2.9,-2 -3.3,-5.9 -5.6,-8.5 -1.5,-1.2 -3.4,-1.7 -5.1,-2.4 0,-1.8 0.3,-3.9 -1.1,-5.4 -2.6,-3.8 -7.4,-4.6 -11.5,-5.5 -0.5,-0.9 -1,-1.7 -1.5,-2.6 -0.7,-0.3 -2,-0.8 -2.7,-1.1 2.4,-1.7 5,-3.1 7.7,-4.5 -3.2,-1.1 -5.3,-3.6 -6.3,-6.8 z"
       id="path168" />
    <path
       class="st2"
       d="m 437.9,326.2 c 1.3,-1.6 2.3,-4.1 4.6,-4.6 2.1,0.3 4.2,1.5 4.8,3.7 -3,1.2 -6.2,1.3 -9.4,0.9 z"
       id="path170" />
    <path
       class="st3"
       d="m 497.9,326.5 c 6.6,-5.1 15.6,-6 23.4,-3.4 8.4,2.7 16.6,6.5 25.6,6.4 -3.3,5.2 -8.6,8.7 -14.4,10.5 -4.8,1.2 -9.6,0 -14.4,-0.2 1.6,2.7 3,5.6 3.9,8.6 -5.6,-4 -12.2,-7.8 -19.4,-6.3 -6.2,1.4 -9.5,7.6 -11.7,12.9 -1.7,3.9 -1.2,8.2 0.4,12 1.5,-5.1 6.1,-7.7 9.3,-11.5 1.2,1.6 3.2,3 3,5.3 -0.1,3.5 -3.6,5.4 -5.2,8.2 0.2,3.7 2,7.5 0.6,11.2 -2.7,8 -3.1,17.5 -9.5,23.6 -3.2,3.4 -8,3.9 -12.3,4 -1.2,3.6 -2.5,7.6 -5.9,9.8 -3.8,2.7 -8.6,1.5 -12.9,1.4 1.9,5.9 7,9.6 11.5,13.5 -7.3,3.6 -14.8,7.1 -20.8,12.7 -3.6,3.3 -5.6,7.9 -8.6,11.6 -1.2,-1.5 -2.5,-2.9 -3.8,-4.3 -2.6,2.8 -4.8,5.9 -7.6,8.5 -1.1,-0.4 -2.1,-0.8 -3.2,-1.2 -0.6,0.4 -1.9,1.2 -2.5,1.6 -0.3,-1.5 -0.8,-3.1 -0.9,-4.6 0.8,-2.1 2.3,-3.8 3.5,-5.7 -1.8,0.3 -3.7,0.7 -5.5,1.1 -0.8,-1.7 -2.4,-3.6 -1,-5.5 1.4,-3.7 6.5,-2.8 8.3,-6.2 -1,0.2 -3,0.5 -4,0.7 0.5,-3.1 2,-6.9 5.8,-6.3 3.8,1.8 7.2,5.7 11.9,4.3 4.7,-1.3 9.8,-3.4 12.7,-7.4 -0.1,-0.5 -0.4,-1.5 -0.5,-2 -5.6,-2.3 -12.5,-2.4 -16.7,-7.5 -5.2,-5.1 -2.8,-14.7 3.7,-17.5 4.3,-2.4 9.2,-1 13.6,0 -3.9,-8 -14.6,-6.7 -20,-12.9 -1.5,-1.7 -0.5,-4.2 1.2,-5.3 4.7,-3.4 10.8,-2.5 16.2,-3.2 3.5,-0.2 6.7,-1.5 9.8,-3 2.3,7.2 5.3,14.8 11.5,19.6 2.8,2.2 6.7,4.2 10.3,2.4 5.1,-2.6 8.1,-8.3 8.6,-13.8 0.4,-3.3 -1.8,-6.4 -4.8,-7.5 -2.7,-1.3 -5.6,-0.1 -8.3,0.6 0.7,-2.5 0.7,-6 3.6,-7.1 2.6,-0.9 5.4,-0.7 8,-1.1 -4.2,-7.1 -8.2,-15.3 -6.6,-23.9 1.8,-8.7 6.8,-17.3 14.1,-23.1 z"
       id="path172" />
    <path
       class="st2"
       d="m 607.7,326.2 c 0.9,-1.8 1.2,-4.7 3.8,-4.7 2.3,0.3 4.4,1.3 6.6,2.2 -3.3,1.3 -6.8,2.2 -10.4,2.5 z"
       id="path174" />
    <path
       class="st3"
       d="m 570.4,322.4 c 2.6,1 6.2,1.7 7.1,4.8 0.5,4.1 -0.4,8.8 2.6,12.1 5.4,6.6 14,9.2 20.2,14.7 -2.3,2.6 -4.4,5.2 -6.4,8 -4.2,-3.5 -9.1,-6.4 -14.7,-6.7 0.7,-0.9 1.5,-1.8 2.2,-2.7 -2.3,-3.7 -5.3,-7 -9.3,-8.7 -1.6,1.6 -3.1,3.4 -5,4.7 -2.3,0.2 -4.5,-0.1 -6.8,-0.1 0.6,-2.8 1.4,-5.6 2.6,-8.2 1.7,-0.4 3.4,-0.8 5,-1.2 -3.7,-1 -6.9,-3.1 -9.5,-5.7 1.8,-1.4 3.3,-4.5 6,-3.6 1.5,0.3 2.9,0.8 4.4,1.3 0.5,-2.9 1.2,-5.8 1.6,-8.7 z m -108.6,5.2 c 4.7,6.9 7.8,15.1 7.4,23.5 -0.4,6.6 -4.6,12.3 -4.8,19 -0.2,3 1.5,5.6 2.8,8.3 -3.4,-0.7 -6.6,-1.8 -9.8,-3 0,1.8 0.1,3.6 0.1,5.4 -2.3,-1.6 -4.6,-3.2 -6.9,-4.7 -3.5,2.4 -7,5.2 -11.2,6.2 -3.1,0.9 -6.4,0.7 -9.6,1.5 -1.5,1 -2.5,2.6 -3.7,3.9 -1,-7.9 -0.6,-16.4 3.2,-23.6 5.4,-8.8 15.9,-11.6 24,-17 6.4,-4.5 8.3,-12.4 8.5,-19.5 z m 122,3.8 c 4.3,0.7 8.6,0.2 12.8,-0.6 3.4,-0.8 6.4,1.2 9.1,3.1 -4.3,1.5 -8.4,4.4 -13.2,3.5 -3.8,-0.4 -6.3,-3.3 -8.7,-6 z m 49.5,0.2 c 1.8,3.9 3.3,8 3.2,12.3 -0.2,10.6 -5.2,20.6 -4.1,31.2 -4.3,-2.2 -9.1,-3.8 -13.9,-2.8 -4.2,0.4 -7.7,3.1 -10.8,5.8 -4,-2.8 -8.7,-4.2 -13,-6.2 -1,-6.1 4.4,-10.6 8.3,-14.4 6.6,-6.7 16.2,-8.8 23.1,-15 3.4,-2.8 5.2,-7 7.2,-10.9 z M 411,335.7 c 5.3,-0.4 10.3,-2.2 15.6,-2.5 3.7,-0.3 6.3,2.6 8.7,5 -5.6,0.5 -11.2,2 -16.8,1.5 -3.1,-0.2 -5.3,-2.3 -7.5,-4 z m 149.7,19.9 c 2.3,0.8 5.4,0.9 6.7,3.4 2.1,4 2.1,8.8 4.2,12.8 1.4,2.8 3.9,5.1 7,6.1 6.1,2 12.4,3.3 18.8,3.8 -1.2,5.9 -0.9,12.4 3.1,17.2 -5.6,-2.7 -12,-3.8 -16.7,-8.1 -3.3,-3 -7.4,-4.8 -11.8,-5.8 0.2,-1.4 0.3,-2.8 0.5,-4.2 -2.7,0.1 -6.1,-1.1 -8.1,1.2 -2.6,2.8 -5.7,5 -9.1,6.5 -0.7,-2.5 -2,-4.9 -1.7,-7.5 1.1,-2.6 4.2,-3.6 6.3,-5.2 -2,-2.5 -4.8,-0.7 -7.3,-0.2 -2,-0.5 -3.9,-1.5 -5.8,-2.2 0.7,-2.6 0.9,-6.1 3.7,-7.3 4.1,-2.1 8,1.3 11.4,3.3 -1.4,-2.4 -3.2,-4.7 -3.9,-7.4 0.4,-2.3 1.8,-4.3 2.7,-6.4 z m -178.6,2.7 c 2.3,-0.2 4.7,-1 6.9,0.2 4.5,2.4 4.2,8.9 8.8,11.1 7.4,3.8 16.3,5.5 24.3,2.2 -0.5,3.9 -0.4,7.7 -0.2,11.6 -5.7,0.9 -11,-1.5 -16.4,-2.9 -3.1,0.2 -5.7,2.5 -8.6,3.7 -0.5,-1.7 -0.2,-3.9 -1.7,-5 -2.6,-0.7 -4.4,1.6 -6.3,2.8 -1.9,0.2 -3.8,0.5 -5.8,0.8 -1,-3.4 0.7,-6.4 1.4,-9.6 -2,-1.1 -4.4,-1.1 -6.6,-1.3 0.2,-1.6 0.3,-3.2 1,-4.7 1.5,-1.5 3.7,-1.8 5.6,-2.5 -0.9,-2.1 -1.6,-4.2 -2.4,-6.4 z m 35.8,44.8 c 0.9,-3.6 3.7,-7.4 7.7,-7.7 5,-0.5 9.1,3.2 12.8,5.9 -3.8,2.3 -7.5,5.2 -8.7,9.7 -1.4,3.6 -0.4,7.4 0.8,10.9 -7.3,-1.5 -14.5,1.4 -20.5,5.4 1.1,-2.3 1.7,-5.4 -1.1,-6.8 -2.7,-2.2 -4.5,1.3 -6.1,3.1 -1.5,2.5 -4.8,2.3 -7.3,3 -0.5,-0.5 -1.6,-1.3 -2.2,-1.8 -0.1,-1.1 -0.2,-2.3 -0.3,-3.4 l 2.1,-3.9 c -2.3,0.6 -4.8,1.2 -6.1,3.5 -2.3,-1.8 -4.7,-4.4 -3.1,-7.5 1.9,-4.4 7.3,-2.9 11,-2.3 -2.1,-2.2 -4.1,-4.5 -6.2,-6.8 1.5,-3.6 5.5,-5.5 9.2,-3.8 4.2,1.5 3.8,6.7 5.1,10.2 0.5,2.6 3.4,3.3 5.6,3.9 2.7,0.8 5.9,0.3 7.9,-1.9 0.3,-3.3 -0.9,-6.4 -0.6,-9.7 z m 184.7,9 c 1.6,-3.4 6.2,-4.2 9.3,-2.4 3,1.4 4.5,4.4 5.9,7.1 -3,2.8 -6.6,5.4 -8.2,9.3 -1.5,3.3 -1,7 -0.8,10.5 -6.5,-2 -12.9,0.2 -18.9,2.8 -2.4,-2.9 -6,-3.7 -9.5,-2.8 -0.3,0.8 -0.8,2.4 -1.1,3.2 -1.3,-1.2 -2.7,-2.3 -3.8,-3.7 0.2,-2.2 0.9,-4.4 1.3,-6.5 -0.6,0.6 -1.8,1.9 -2.3,2.5 -1.8,-1.5 -4.3,-2.5 -4.8,-5 0.6,-4.1 5.8,-3.9 7.6,-7.2 -1.2,0 -3.7,0.1 -4.9,0.2 1.3,-2.2 2,-5.5 5,-5.9 2.4,-0.4 5.9,0.1 6.7,2.9 1.6,4.3 2.8,9.6 7.3,11.9 3.1,2.2 7.9,0.8 9.2,-2.8 1.7,-4.5 0,-9.7 2,-14.1 z"
       id="path176" />
    <path
       class="st0"
       d="m 395,530.8 c 42.9,-34 85.8,-68 128.7,-102.1 42.7,33.9 85.4,67.9 128.2,101.8 -3.2,8.4 -6.8,16.7 -10.7,24.8 -39.2,-31.1 -78.3,-62.2 -117.5,-93.2 -39.3,31.2 -78.6,62.4 -118,93.5 -3.8,-8.2 -7.5,-16.4 -10.7,-24.8 z"
       id="path178" />
    <path
       class="st2"
       d="m 414.9,572.8 c 36.2,-28.8 72.6,-57.5 108.9,-86.4 36.1,28.7 72.3,57.4 108.4,86.1 -7.5,13.2 -15.7,26 -25.6,37.4 -22.5,26.6 -51.7,47.1 -83,62.1 -31.2,-14.7 -60.1,-35.1 -82.7,-61.4 -10.1,-11.5 -18.5,-24.5 -26,-37.8 z"
       id="path180" />
    <path
       class="st3"
       d="m 537.5,513 c 2.8,0.2 5.1,-1.6 7.4,-2.8 -0.6,2.5 -1.7,4.8 -3.5,6.7 -3.2,3.2 -2.2,9.1 -6.6,11.3 -8,4.4 -16.4,8.5 -25.6,9.3 0.6,-4.2 6.2,-3.8 7.4,-7.6 0.6,-3.1 0,-6.7 -2.2,-9 -2.8,-0.7 -5.4,1.1 -8.1,1.7 1,-1.6 1.6,-3.5 3.1,-4.7 2.1,-1.4 4.7,-1.7 7,-2.2 2.1,-1.9 4,-4.4 7,-4.6 4.8,-0.6 9.3,1.6 14.1,1.9 z"
       id="path182" />
    <path
       class="st2"
       d="m 522.3,519.2 c -2,-2 -0.3,-4 1.7,-5.1 2.2,0.6 4.5,1.2 6.7,1.8 -2.6,1.4 -5.3,2.9 -8.4,3.3 z"
       id="path184" />
    <path
       class="st3"
       d="m 544.2,520.6 c 1.5,2.2 3.2,4.5 3.2,7.3 0.7,11.2 -3.9,21.9 -3.2,33.1 0,4 1.5,7.7 3,11.3 -2.2,-1.1 -4.2,-2.5 -6.6,-2.9 -1.4,1.4 -2.5,3 -3.6,4.5 -5.5,-3.5 -10.9,-8.5 -11.5,-15.4 -4.2,2.5 -9,3.5 -13.8,4.3 0.6,-2.1 1.3,-4.2 1.9,-6.4 -3.6,0.5 -6.6,2.5 -9.5,4.5 2,-9.1 7.1,-18.6 16.4,-21.9 6.2,-2.1 12.7,-4 17.6,-8.6 3,-2.5 4.5,-6.2 6.1,-9.8 z m -49.4,5.6 c 5,0.9 9.7,-1.4 14.6,-1.8 2.1,0.7 3.9,2.2 5.7,3.5 -4.5,1.3 -8.9,3.3 -13.7,3.1 -3,-0.2 -4.7,-2.9 -6.6,-4.8 z m -8,8.8 c 0.4,-2 1.5,-3.9 2.3,-5.8 1.9,1 4.1,1.9 5.7,3.4 2.5,3 0.2,8 3.6,10.5 2.2,1.7 5,2.1 7.6,2.8 -1.4,2.5 -2.4,5.3 -4.1,7.6 -3.2,1.7 -6.9,2.1 -10.2,3.2 -0.5,-2.3 0.2,-5.4 -2.2,-6.8 -3.7,-0.5 -5.4,4.5 -9.1,3.9 h -5.2 c -0.5,-2.9 -1.4,-6.6 1.4,-8.7 2.3,-0.4 4.6,-0.4 7,-0.6 -3.7,-1.6 -7.3,-3.2 -10.3,-5.9 1.6,-2.9 4.5,-6.5 8.2,-4.5 2.9,2.3 4.9,5.6 8.2,7.4 -1,-2.2 -2.2,-4.2 -2.9,-6.5 z"
       id="path186" />
    <path
       class="st3"
       d="m 555,549.9 c -2,-5 0.1,-12 5.6,-13.7 6.4,-1.7 13.3,1.3 17.5,6.3 6.7,7.8 8.1,18.7 6.2,28.5 2,-1.6 3.7,-3.6 6.2,-4.4 2,0.3 4,1 5.9,1.6 -2.5,2.6 -5.5,5.2 -6.5,8.9 -0.9,2.7 -0.2,5.5 0.3,8.2 -2.9,1 -6,2.1 -7.9,4.8 -5.3,6.5 -6.7,16.3 -14.9,20.1 -7,3.5 -14.7,0.7 -21.5,-1.6 0.9,2.9 1.7,6 3.8,8.3 3.1,3.4 7.3,5.6 11.2,8 -4.7,4.7 -8.4,10.1 -12.6,15.2 -2.5,3.2 -6.1,5.2 -9.4,7.6 -1.5,-0.1 -3,-0.3 -4.5,-0.4 0.3,-1.2 0.7,-2.5 1,-3.7 -2,-0.2 -4.3,-0.8 -5.9,0.8 -2.6,1.7 -3,5.1 -4.4,7.7 -2.8,0.4 -5.8,0.5 -8.2,2.1 -0.2,-2.3 -1,-4.9 0.3,-7 1.7,-2.5 4.2,-4.4 6.2,-6.7 -2.4,0 -4.7,0.9 -7,1.4 -2.2,-0.6 -4.2,-1.7 -6.4,-2.6 2,-2.5 3.9,-5.6 7.3,-6.3 3,-1.1 5.8,0.8 8.4,2.1 -1.7,-2 -3.3,-4.1 -4.5,-6.4 -0.3,-0.4 -0.8,-1.3 -1.1,-1.7 3.5,-1.3 7.8,-2.5 10.8,0.4 0.9,2.7 0.7,6 2.9,8.2 1.3,1.3 3.1,2.6 5,2.2 3.5,-2.1 5,-6.1 6.6,-9.7 -5.3,-6 -13.2,-8.2 -19.6,-12.6 -4.2,-2.7 -7.3,-7.3 -7.5,-12.4 0.1,-3.6 2.4,-6.9 5.8,-8.2 3.6,-1.8 7.7,-0.1 11.4,0.5 -3.4,-3.6 -7.4,-6.6 -12,-8.6 -3.8,-1.8 -8.1,-2.8 -11.5,-5.4 -4.5,-3.6 -6.3,-10 -4.7,-15.4 4.7,-1.5 10.1,0.7 14.3,-2.7 4.5,5.8 8.4,12.3 15,16 1.3,-1.9 2.7,-3.9 4.1,-5.7 4.2,8.1 0.9,17.8 5,25.9 2.7,5.3 8.5,9.3 14.6,8.6 7.3,-0.7 12.9,-7.3 14.7,-14.1 1.1,-3.5 -1.7,-8.1 -5.7,-7.7 -3.2,1 -5.4,3.9 -7.9,5.9 0.5,-4.1 0.4,-9 3.7,-12.1 2.7,-1.4 6,-1.4 8.5,-3.2 -1.5,-1.9 -3.6,-3.2 -5.6,-4.6 3.4,0.5 6.8,1 10.2,1.7 3.1,-7.3 4.4,-16 0.5,-23.4 -2,-4.3 -6.1,-7.1 -10.4,-8.8 -0.5,0.6 -1.7,1.7 -2.2,2.3 3.1,3.1 7.3,5.7 8.5,10.2 0.7,2.8 -1.1,5.2 -3.6,6.2 -0.9,5.3 -3.8,9.8 -7.6,13.6 0.1,-4.4 0.1,-9.1 -1.9,-13.2 -1.3,-4.2 -4.4,-7.3 -6.5,-11 z"
       id="path188" />
    <path
       class="st3"
       d="m 456.3,555 c 2.6,-2.1 5.8,-5.2 9.3,-3.2 4.7,1.5 4.2,7.2 6.5,10.5 9.4,5.3 20.9,5.3 31.3,3.4 -0.3,5.8 0.9,11.9 5,16.3 -6.3,-2.1 -12.9,-3.1 -18.8,-6.4 -2.2,-1.1 -4.5,-2.8 -7.1,-2.4 -3.5,0.4 -6.7,2 -10,3.2 -0.3,-2.9 -0.9,-6.2 -4.1,-7.1 -1.5,1.9 -2,4.3 -3.1,6.4 -1.4,1.2 -3.2,2 -4.8,2.9 -1.2,-1.5 -2.8,-2.8 -3.4,-4.7 0.3,-1.4 0.9,-2.8 1.3,-4.2 -2.7,0.4 -5.4,0.6 -8.1,0.8 0.4,-3.1 -0.9,-7.6 2.4,-9.5 3,-1.3 6.3,-0.3 9.5,-0.2 -1.9,-1.8 -3.9,-3.8 -5.9,-5.8 z m 40.1,41 c -1.1,-5.1 4,-10.5 9.1,-9.8 6.1,0.6 10.7,5.4 16.9,6 -8,3 -9,13.6 -4.4,19.9 -9.2,-1.3 -17.4,3.6 -25,7.9 -0.3,-1.5 -0.5,-3.1 -1,-4.6 -1.8,-0.9 -3.8,-0.2 -5.7,-0.2 -1.7,0.1 -3.7,-0.1 -4.9,1.5 -2.3,2.4 -5,4.3 -7.8,6 -0.7,-1.2 -1.5,-2.5 -2.2,-3.7 0.2,-2.3 1.3,-4.9 0.1,-7.1 -2.3,-0.6 -4.5,0.5 -6.6,1.1 0,-3 -0.9,-6.6 1.7,-8.8 2.4,-0.2 4.8,0.1 7.2,0 0.3,-3.2 -3.3,-2.7 -5.4,-3.3 1,-2.5 1.8,-6.2 5.1,-6.2 1.9,-0.1 4.9,-0.1 5.4,2.3 1,2.9 2,6.2 5.1,7.5 5.5,2.5 12,1.7 17.7,0 -1.5,-3 -4.1,-5.3 -5.3,-8.5 z"
       id="path190" />
  </g>
</svg>
